<?xml version="1.0" ?><!DOCTYPE svg  PUBLIC '-//W3C//DTD SVG 1.1//EN'  'http://www.w3.org/Graphics/SVG/1.1/DTD/svg11.dtd'><svg enable-background="new 0 0 64 64" height="64px" id="Layer_1" version="1.1" viewBox="0 0 64 64" width="64px" xml:space="preserve" xmlns="http://www.w3.org/2000/svg" xmlns:xlink="http://www.w3.org/1999/xlink"><g><path d="M21.765,19.943H11.142c-2.52,0-4.553,2.036-4.553,4.553v39.458h19.729V24.496   C26.318,21.979,24.27,19.943,21.765,19.943z" fill="#241F20"/><path d="M16.956,17.109c2.509-0.267,4.353-2.389,4.329-4.876c0.016-0.001,0.032-0.003,0.032-0.003   s0.3-3.516-6.18-12.185c1.873,4.327-1.331,6.789-2.863,9.745c-0.042,0.052-0.068,0.103-0.08,0.154   c-0.08,0.151-0.16,0.306-0.237,0.475c-0.065,0.15-0.127,0.316-0.175,0.482c-0.009,0.049-0.021,0.1-0.033,0.148   c-0.149,0.546-0.2,1.13-0.136,1.734C11.901,15.468,14.29,17.394,16.956,17.109z" fill="#241F20"/><path d="M57.241,21.063c-4.847,4.686-10.069,6.775-13.148,7.481c-3.077,0.705-11.565,3.657-14.271,10.867   c-4.474,15.104,2.605,24.542,2.605,24.542c-4.683-17.031,2.89-20.55,8.233-23.562c0.928-0.51,1.746-0.989,2.517-1.455   c-0.029,0.021-0.055,0.039-0.086,0.062c-9.974,7.069-9.896,11.076-9.953,13.922c-0.038,2.016,0.676,2.001,1.575,1.488   c0.439-0.172,8.745-3.447,11.568-5.217c0.002,0,0.003,0,0.005-0.003c1.646-0.881,3.524-2.113,5.243-3.8   C58.945,37.772,57.241,21.063,57.241,21.063z" fill="#241F20"/></g></svg>